# xmcd
#
# Track frame offsets:
#	150
#	10506
#	38980
#	64486
#	83417
#	106589
#	125921
#	142646
#	165253
#	182542
#	207462
#	229003
#	249468
#	271165
#	291290
#	311468
#	328632
#	346433
#
# Disc length: 4879 seconds
#
# Revision: 2
# Processed by: cddbd v1.5.2PL0 Copyright (c) Steve Scherf et al.
# Submitted via: audiograbber 1.83.01
#
DISCID=f0130d12
DTITLE=Schiller - Zeitreise - Das Beste von Schiller [Limited Super Deluxe Edit
DTITLE=ion] [CD 1)
DYEAR=2016
DGENRE=Electronic
TTITLE0=Zeitreise I
TTITLE1=Schwerelos
TTITLE2=The Future III
TTITLE3=Ile Aye [mit Stephenie Coker]
TTITLE4=Tiefblau
TTITLE5=Der Tag....Du bist erwacht [mit Jette von Roth]
TTITLE6=Sommerregen
TTITLE7=Playing With Madness [mit Mia Bergström]
TTITLE8=Leben....I Feel You [mit Heppner]
TTITLE9=In der Weite
TTITLE10=Ultramarin
TTITLE11=Berlin - Moskau
TTITLE12=Salton Sea
TTITLE13=Mitternacht
TTITLE14=Polarstern
TTITLE15=Once Upon A Time
TTITLE16=Dream Of You [mit Heppner]
TTITLE17=Denn wer liebt [mit Anna Maria Muehe]
EXTD=
EXTT0=
EXTT1=
EXTT2=
EXTT3=
EXTT4=
EXTT5=
EXTT6=
EXTT7=
EXTT8=
EXTT9=
EXTT10=
EXTT11=
EXTT12=
EXTT13=
EXTT14=
EXTT15=
EXTT16=
EXTT17=
PLAYORDER=
